{
	"meshes":[{
		"name":"V",
		"primitives":[{
			"attributes":{
				"POSITION":1,
				"TEXCOORD_0":2
			},
			"indices":0,
			"material":0
		}]
	},
	{
		"name":"_",
		"primitives":[{
			"attributes":{
				"POSITION":4,
				"TEXCOORD_0":5
			},
			"indices":3,
			"material":0
		}]
	},
	{
		"name":"_",
		"primitives":[{
			"attributes":{
				"POSITION":7,
				"TEXCOORD_0":8
			},
			"indices":6,
			"material":1
		}]
	},
	{
		"name":"_",
		"primitives":[{
			"attributes":{
				"POSITION":10,
				"TEXCOORD_0":11
			},
			"indices":9,
			"material":1
		}]
	},
	{
		"name":"V",
		"primitives":[{
			"attributes":{
				"POSITION":13,
				"TEXCOORD_0":14
			},
			"indices":12,
			"material":2
		}]
	},
	{
		"name":"V",
		"primitives":[{
			"attributes":{
				"POSITION":16,
				"TEXCOORD_0":17
			},
			"indices":15,
			"material":3
		}]
	},
	{
		"name":"Cap 1",
		"primitives":[{
			"attributes":{
				"POSITION":19,
				"TEXCOORD_0":20
			},
			"indices":18,
			"material":3
		}]
	},
	{
		"name":"Cap 2",
		"primitives":[{
			"attributes":{
				"POSITION":22,
				"TEXCOORD_0":23
			},
			"indices":21,
			"material":3
		}]
	},
	{
		"name":"_",
		"primitives":[{
			"attributes":{
				"POSITION":25,
				"TEXCOORD_0":26
			},
			"indices":24,
			"material":3
		}]
	},
	{
		"name":"Cap 1",
		"primitives":[{
			"attributes":{
				"POSITION":28,
				"TEXCOORD_0":29
			},
			"indices":27,
			"material":3
		}]
	},
	{
		"name":"Cap 2",
		"primitives":[{
			"attributes":{
				"POSITION":31,
				"TEXCOORD_0":32
			},
			"indices":30,
			"material":3
		}]
	},
	{
		"name":"_",
		"primitives":[{
			"attributes":{
				"POSITION":34,
				"TEXCOORD_0":35
			},
			"indices":33,
			"material":3
		}]
	},
	{
		"name":"Cap 1",
		"primitives":[{
			"attributes":{
				"POSITION":37,
				"TEXCOORD_0":38
			},
			"indices":36,
			"material":3
		}]
	},
	{
		"name":"Cap 2",
		"primitives":[{
			"attributes":{
				"POSITION":40,
				"TEXCOORD_0":41
			},
			"indices":39,
			"material":3
		}]
	},
	{
		"name":"_",
		"primitives":[{
			"attributes":{
				"POSITION":43,
				"TEXCOORD_0":44
			},
			"indices":42,
			"material":3
		}]
	},
	{
		"name":"Cap 1",
		"primitives":[{
			"attributes":{
				"POSITION":46,
				"TEXCOORD_0":47
			},
			"indices":45,
			"material":3
		}]
	},
	{
		"name":"Cap 2",
		"primitives":[{
			"attributes":{
				"POSITION":49,
				"TEXCOORD_0":50
			},
			"indices":48,
			"material":3
		}]
	},
	{
		"name":"V",
		"primitives":[{
			"attributes":{
				"POSITION":52,
				"TEXCOORD_0":53
			},
			"indices":51,
			"material":3
		}]
	},
	{
		"name":"Cap 1",
		"primitives":[{
			"attributes":{
				"POSITION":55,
				"TEXCOORD_0":56
			},
			"indices":54,
			"material":3
		}]
	},
	{
		"name":"Cap 2",
		"primitives":[{
			"attributes":{
				"POSITION":58,
				"TEXCOORD_0":59
			},
			"indices":57,
			"material":3
		}]
	}],
	"nodes":[{
		"name":"Todo",
		"children":[1]
	},
	{
		"name":"Logo",
		"children":[2,
		14,
		20,
		27,
		33,
		39]
	},
	{
		"name":"Neon",
		"children":[3]
	},
	{
		"name":"Cara 1",
		"translation":[0.0,
		0.0,
		-0.05490000173449516],
		"rotation":[0.0,
		0.0,
		0.0,
		-1.0],
		"scale":[1.0,
		1.0,
		1.9989999532699586],
		"children":[4,
		6,
		8,
		10,
		12]
	},
	{
		"name":"A",
		"children":[5]
	},
	{
		"mesh":0,
		"name":"V"
	},
	{
		"name":"-.1",
		"translation":[0.0,
		0.13857437670230866,
		0.0],
		"rotation":[0.0,
		0.0,
		0.0,
		-1.0],
		"scale":[1.0,
		1.0,
		1.0],
		"children":[7]
	},
	{
		"mesh":1,
		"name":"_"
	},
	{
		"name":"-I",
		"translation":[0.0,
		0.13857437670230866,
		0.0],
		"rotation":[0.0,
		0.0,
		0.0,
		-1.0],
		"scale":[1.0,
		1.0,
		1.0],
		"children":[9]
	},
	{
		"mesh":2,
		"name":"_"
	},
	{
		"name":"-D",
		"translation":[0.0,
		0.13857437670230866,
		0.0],
		"rotation":[0.0,
		0.0,
		0.0,
		-1.0],
		"scale":[1.0,
		1.0,
		1.0],
		"children":[11]
	},
	{
		"mesh":3,
		"name":"_"
	},
	{
		"name":"V",
		"children":[13]
	},
	{
		"mesh":4,
		"name":"V"
	},
	{
		"name":"A",
		"translation":[0.0,
		2.799999952316284,
		0.10503144562244415],
		"rotation":[0.0,
		0.0,
		1.0,
		-6.123234262925839e-17],
		"scale":[1.0,
		1.0,
		1.0],
		"children":[15]
	},
	{
		"name":"1",
		"translation":[-1.2421875,
		0.0,
		0.0],
		"rotation":[0.0,
		0.0,
		0.0,
		-1.0],
		"scale":[1.0,
		1.0,
		1.0],
		"children":[16]
	},
	{
		"name":"V",
		"children":[17]
	},
	{
		"mesh":5,
		"name":"V",
		"children":[18,
		19]
	},
	{
		"mesh":6,
		"name":"Cap 1"
	},
	{
		"mesh":7,
		"name":"Cap 2"
	},
	{
		"name":"-.1",
		"translation":[0.0,
		1.918574333190918,
		0.10503144562244415],
		"rotation":[0.0,
		0.0,
		0.0,
		-1.0],
		"scale":[0.6000000238418579,
		1.25,
		1.0],
		"children":[21]
	},
	{
		"name":"Text",
		"children":[22]
	},
	{
		"name":"1",
		"translation":[-0.830078125,
		0.0,
		0.0],
		"rotation":[0.0,
		0.0,
		0.0,
		-1.0],
		"scale":[1.0,
		1.0,
		1.0],
		"children":[23]
	},
	{
		"name":"_",
		"children":[24]
	},
	{
		"mesh":8,
		"name":"_",
		"children":[25,
		26]
	},
	{
		"mesh":9,
		"name":"Cap 1"
	},
	{
		"mesh":10,
		"name":"Cap 2"
	},
	{
		"name":"-I",
		"translation":[0.5,
		1.9385744333267213,
		0.10503144562244415],
		"rotation":[0.0,
		0.0,
		0.0,
		-1.0],
		"scale":[0.550000011920929,
		1.2999999523162842,
		1.0],
		"children":[28]
	},
	{
		"name":"1",
		"children":[29]
	},
	{
		"name":"_",
		"children":[30]
	},
	{
		"mesh":11,
		"name":"_",
		"children":[31,
		32]
	},
	{
		"mesh":12,
		"name":"Cap 1"
	},
	{
		"mesh":13,
		"name":"Cap 2"
	},
	{
		"name":"-D",
		"translation":[-0.5,
		1.9385744333267213,
		0.10503144562244415],
		"rotation":[0.0,
		0.0,
		0.0,
		-1.0],
		"scale":[0.550000011920929,
		1.2999999523162842,
		1.0],
		"children":[34]
	},
	{
		"name":"1",
		"translation":[-1.66015625,
		0.0,
		0.0],
		"rotation":[0.0,
		0.0,
		0.0,
		-1.0],
		"scale":[1.0,
		1.0,
		1.0],
		"children":[35]
	},
	{
		"name":"_",
		"children":[36]
	},
	{
		"mesh":14,
		"name":"_",
		"children":[37,
		38]
	},
	{
		"mesh":15,
		"name":"Cap 1"
	},
	{
		"mesh":16,
		"name":"Cap 2"
	},
	{
		"name":"V",
		"translation":[0.0,
		0.0,
		0.10503144562244415],
		"rotation":[0.0,
		0.0,
		0.0,
		-1.0],
		"scale":[1.0,
		1.0,
		1.0],
		"children":[40]
	},
	{
		"name":"1",
		"translation":[-1.2421875,
		0.0,
		0.0],
		"rotation":[0.0,
		0.0,
		0.0,
		-1.0],
		"scale":[1.0,
		1.0,
		1.0],
		"children":[41]
	},
	{
		"name":"V",
		"children":[42]
	},
	{
		"mesh":17,
		"name":"V",
		"children":[43,
		44]
	},
	{
		"mesh":18,
		"name":"Cap 1"
	},
	{
		"mesh":19,
		"name":"Cap 2"
	}],
	"asset":{
		"version":"2.0",
		"generator":"Created using the official Cinema 4D glTF Exporter 1.000x284978"
	},
	"scenes":[{
		"nodes":[0]
	}],
	"accessors":[{
		"bufferView":0,
		"type":"SCALAR",
		"componentType":5123,
		"count":2688,
		"byteOffset":0,
		"min":[0],
		"max":[853]
	},
	{
		"bufferView":1,
		"type":"VEC3",
		"componentType":5126,
		"count":854,
		"byteOffset":0,
		"min":[-1.307031273841858,
		-0.10078124701976776,
		-0.11999999731779099],
		"max":[1.307031273841858,
		2.9000000953674318,
		0.07999999821186066]
	},
	{
		"bufferView":1,
		"type":"VEC2",
		"componentType":5126,
		"count":854,
		"byteOffset":12,
		"min":[0.0,
		0.0],
		"max":[1.0,
		1.0]
	},
	{
		"bufferView":2,
		"type":"SCALAR",
		"componentType":5123,
		"count":768,
		"byteOffset":0,
		"min":[0],
		"max":[243]
	},
	{
		"bufferView":3,
		"type":"VEC3",
		"componentType":5126,
		"count":244,
		"byteOffset":0,
		"min":[-0.5814453363418579,
		0.9458984136581421,
		-0.11999999731779099],
		"max":[0.5814453363418579,
		1.4480469226837159,
		0.07999999821186066]
	},
	{
		"bufferView":3,
		"type":"VEC2",
		"componentType":5126,
		"count":244,
		"byteOffset":12,
		"min":[0.0,
		0.0],
		"max":[1.0,
		1.0]
	},
	{
		"bufferView":4,
		"type":"SCALAR",
		"componentType":5123,
		"count":768,
		"byteOffset":0,
		"min":[0],
		"max":[243]
	},
	{
		"bufferView":5,
		"type":"VEC3",
		"componentType":5126,
		"count":244,
		"byteOffset":0,
		"min":[0.4000000059604645,
		0.9458984136581421,
		-0.11999999731779099],
		"max":[1.513085961341858,
		1.4480469226837159,
		0.07999999821186066]
	},
	{
		"bufferView":5,
		"type":"VEC2",
		"componentType":5126,
		"count":244,
		"byteOffset":12,
		"min":[0.0,
		0.0],
		"max":[1.0,
		1.0]
	},
	{
		"bufferView":6,
		"type":"SCALAR",
		"componentType":5123,
		"count":768,
		"byteOffset":0,
		"min":[0],
		"max":[243]
	},
	{
		"bufferView":7,
		"type":"VEC3",
		"componentType":5126,
		"count":244,
		"byteOffset":0,
		"min":[-1.513085961341858,
		0.9458984136581421,
		-0.11999999731779099],
		"max":[-0.4000000059604645,
		1.4480469226837159,
		0.07999999821186066]
	},
	{
		"bufferView":7,
		"type":"VEC2",
		"componentType":5126,
		"count":244,
		"byteOffset":12,
		"min":[0.0,
		0.0],
		"max":[1.0,
		1.0]
	},
	{
		"bufferView":8,
		"type":"SCALAR",
		"componentType":5123,
		"count":2688,
		"byteOffset":0,
		"min":[0],
		"max":[853]
	},
	{
		"bufferView":9,
		"type":"VEC3",
		"componentType":5126,
		"count":854,
		"byteOffset":0,
		"min":[-1.307031273841858,
		-0.10000000149011612,
		-0.11999999731779099],
		"max":[1.307031273841858,
		2.9007811546325685,
		0.07999999821186066]
	},
	{
		"bufferView":9,
		"type":"VEC2",
		"componentType":5126,
		"count":854,
		"byteOffset":12,
		"min":[0.0,
		0.0],
		"max":[1.0,
		1.0]
	},
	{
		"bufferView":10,
		"type":"SCALAR",
		"componentType":5123,
		"count":84,
		"byteOffset":0,
		"min":[0],
		"max":[29]
	},
	{
		"bufferView":11,
		"type":"VEC3",
		"componentType":5126,
		"count":30,
		"byteOffset":0,
		"min":[0.03515625,
		0.0,
		-0.4000000059604645],
		"max":[2.44921875,
		2.80078125,
		0.0]
	},
	{
		"bufferView":11,
		"type":"VEC2",
		"componentType":5126,
		"count":30,
		"byteOffset":12,
		"min":[0.0,
		0.0],
		"max":[1.0,
		1.0]
	},
	{
		"bufferView":12,
		"type":"SCALAR",
		"componentType":5123,
		"count":36,
		"byteOffset":0,
		"min":[0],
		"max":[13]
	},
	{
		"bufferView":13,
		"type":"VEC3",
		"componentType":5126,
		"count":14,
		"byteOffset":0,
		"min":[0.03515625,
		0.0,
		0.0],
		"max":[2.44921875,
		2.80078125,
		0.0]
	},
	{
		"bufferView":13,
		"type":"VEC2",
		"componentType":5126,
		"count":14,
		"byteOffset":12,
		"min":[0.0,
		0.0],
		"max":[0.8619246482849121,
		1.0]
	},
	{
		"bufferView":14,
		"type":"SCALAR",
		"componentType":5123,
		"count":36,
		"byteOffset":0,
		"min":[0],
		"max":[13]
	},
	{
		"bufferView":15,
		"type":"VEC3",
		"componentType":5126,
		"count":14,
		"byteOffset":0,
		"min":[0.03515625,
		0.0,
		-0.4000000059604645],
		"max":[2.44921875,
		2.80078125,
		-0.4000000059604645]
	},
	{
		"bufferView":15,
		"type":"VEC2",
		"componentType":5126,
		"count":14,
		"byteOffset":12,
		"min":[0.0,
		0.0],
		"max":[0.8619246482849121,
		1.0]
	},
	{
		"bufferView":16,
		"type":"SCALAR",
		"componentType":5123,
		"count":24,
		"byteOffset":0,
		"min":[0],
		"max":[9]
	},
	{
		"bufferView":17,
		"type":"VEC3",
		"componentType":5126,
		"count":10,
		"byteOffset":0,
		"min":[0.0,
		-0.580078125,
		-0.4000000059604645],
		"max":[1.66015625,
		-0.34765625,
		0.0]
	},
	{
		"bufferView":17,
		"type":"VEC2",
		"componentType":5126,
		"count":10,
		"byteOffset":12,
		"min":[0.0,
		0.0],
		"max":[1.0,
		1.0]
	},
	{
		"bufferView":18,
		"type":"SCALAR",
		"componentType":5123,
		"count":6,
		"byteOffset":0,
		"min":[0],
		"max":[3]
	},
	{
		"bufferView":19,
		"type":"VEC3",
		"componentType":5126,
		"count":4,
		"byteOffset":0,
		"min":[0.0,
		-0.580078125,
		0.0],
		"max":[1.66015625,
		-0.34765625,
		0.0]
	},
	{
		"bufferView":19,
		"type":"VEC2",
		"componentType":5126,
		"count":4,
		"byteOffset":12,
		"min":[0.0,
		0.0],
		"max":[1.0,
		0.13999998569488526]
	},
	{
		"bufferView":20,
		"type":"SCALAR",
		"componentType":5123,
		"count":6,
		"byteOffset":0,
		"min":[0],
		"max":[3]
	},
	{
		"bufferView":21,
		"type":"VEC3",
		"componentType":5126,
		"count":4,
		"byteOffset":0,
		"min":[0.0,
		-0.580078125,
		-0.4000000059604645],
		"max":[1.66015625,
		-0.34765625,
		-0.4000000059604645]
	},
	{
		"bufferView":21,
		"type":"VEC2",
		"componentType":5126,
		"count":4,
		"byteOffset":12,
		"min":[0.0,
		0.0],
		"max":[1.0,
		0.13999998569488526]
	},
	{
		"bufferView":22,
		"type":"SCALAR",
		"componentType":5123,
		"count":24,
		"byteOffset":0,
		"min":[0],
		"max":[9]
	},
	{
		"bufferView":23,
		"type":"VEC3",
		"componentType":5126,
		"count":10,
		"byteOffset":0,
		"min":[0.0,
		-0.580078125,
		-0.4000000059604645],
		"max":[1.66015625,
		-0.34765625,
		0.0]
	},
	{
		"bufferView":23,
		"type":"VEC2",
		"componentType":5126,
		"count":10,
		"byteOffset":12,
		"min":[0.0,
		0.0],
		"max":[1.0,
		1.0]
	},
	{
		"bufferView":24,
		"type":"SCALAR",
		"componentType":5123,
		"count":6,
		"byteOffset":0,
		"min":[0],
		"max":[3]
	},
	{
		"bufferView":25,
		"type":"VEC3",
		"componentType":5126,
		"count":4,
		"byteOffset":0,
		"min":[0.0,
		-0.580078125,
		0.0],
		"max":[1.66015625,
		-0.34765625,
		0.0]
	},
	{
		"bufferView":25,
		"type":"VEC2",
		"componentType":5126,
		"count":4,
		"byteOffset":12,
		"min":[0.0,
		0.0],
		"max":[1.0,
		0.13999998569488526]
	},
	{
		"bufferView":26,
		"type":"SCALAR",
		"componentType":5123,
		"count":6,
		"byteOffset":0,
		"min":[0],
		"max":[3]
	},
	{
		"bufferView":27,
		"type":"VEC3",
		"componentType":5126,
		"count":4,
		"byteOffset":0,
		"min":[0.0,
		-0.580078125,
		-0.4000000059604645],
		"max":[1.66015625,
		-0.34765625,
		-0.4000000059604645]
	},
	{
		"bufferView":27,
		"type":"VEC2",
		"componentType":5126,
		"count":4,
		"byteOffset":12,
		"min":[0.0,
		0.0],
		"max":[1.0,
		0.13999998569488526]
	},
	{
		"bufferView":28,
		"type":"SCALAR",
		"componentType":5123,
		"count":24,
		"byteOffset":0,
		"min":[0],
		"max":[9]
	},
	{
		"bufferView":29,
		"type":"VEC3",
		"componentType":5126,
		"count":10,
		"byteOffset":0,
		"min":[0.0,
		-0.580078125,
		-0.4000000059604645],
		"max":[1.66015625,
		-0.34765625,
		0.0]
	},
	{
		"bufferView":29,
		"type":"VEC2",
		"componentType":5126,
		"count":10,
		"byteOffset":12,
		"min":[0.0,
		0.0],
		"max":[1.0,
		1.0]
	},
	{
		"bufferView":30,
		"type":"SCALAR",
		"componentType":5123,
		"count":6,
		"byteOffset":0,
		"min":[0],
		"max":[3]
	},
	{
		"bufferView":31,
		"type":"VEC3",
		"componentType":5126,
		"count":4,
		"byteOffset":0,
		"min":[0.0,
		-0.580078125,
		0.0],
		"max":[1.66015625,
		-0.34765625,
		0.0]
	},
	{
		"bufferView":31,
		"type":"VEC2",
		"componentType":5126,
		"count":4,
		"byteOffset":12,
		"min":[0.0,
		0.0],
		"max":[1.0,
		0.13999998569488526]
	},
	{
		"bufferView":32,
		"type":"SCALAR",
		"componentType":5123,
		"count":6,
		"byteOffset":0,
		"min":[0],
		"max":[3]
	},
	{
		"bufferView":33,
		"type":"VEC3",
		"componentType":5126,
		"count":4,
		"byteOffset":0,
		"min":[0.0,
		-0.580078125,
		-0.4000000059604645],
		"max":[1.66015625,
		-0.34765625,
		-0.4000000059604645]
	},
	{
		"bufferView":33,
		"type":"VEC2",
		"componentType":5126,
		"count":4,
		"byteOffset":12,
		"min":[0.0,
		0.0],
		"max":[1.0,
		0.13999998569488526]
	},
	{
		"bufferView":34,
		"type":"SCALAR",
		"componentType":5123,
		"count":84,
		"byteOffset":0,
		"min":[0],
		"max":[29]
	},
	{
		"bufferView":35,
		"type":"VEC3",
		"componentType":5126,
		"count":30,
		"byteOffset":0,
		"min":[0.03515625,
		0.0,
		-0.4000000059604645],
		"max":[2.44921875,
		2.80078125,
		0.0]
	},
	{
		"bufferView":35,
		"type":"VEC2",
		"componentType":5126,
		"count":30,
		"byteOffset":12,
		"min":[0.0,
		0.0],
		"max":[1.0,
		1.0]
	},
	{
		"bufferView":36,
		"type":"SCALAR",
		"componentType":5123,
		"count":36,
		"byteOffset":0,
		"min":[0],
		"max":[13]
	},
	{
		"bufferView":37,
		"type":"VEC3",
		"componentType":5126,
		"count":14,
		"byteOffset":0,
		"min":[0.03515625,
		0.0,
		0.0],
		"max":[2.44921875,
		2.80078125,
		0.0]
	},
	{
		"bufferView":37,
		"type":"VEC2",
		"componentType":5126,
		"count":14,
		"byteOffset":12,
		"min":[0.0,
		0.0],
		"max":[0.8619246482849121,
		1.0]
	},
	{
		"bufferView":38,
		"type":"SCALAR",
		"componentType":5123,
		"count":36,
		"byteOffset":0,
		"min":[0],
		"max":[13]
	},
	{
		"bufferView":39,
		"type":"VEC3",
		"componentType":5126,
		"count":14,
		"byteOffset":0,
		"min":[0.03515625,
		0.0,
		-0.4000000059604645],
		"max":[2.44921875,
		2.80078125,
		-0.4000000059604645]
	},
	{
		"bufferView":39,
		"type":"VEC2",
		"componentType":5126,
		"count":14,
		"byteOffset":12,
		"min":[0.0,
		0.0],
		"max":[0.8619246482849121,
		1.0]
	}],
	"bufferViews":[{
		"buffer":0,
		"byteOffset":0,
		"byteLength":5376,
		"target":34963
	},
	{
		"buffer":0,
		"byteOffset":5376,
		"byteLength":17080,
		"target":34962,
		"byteStride":20
	},
	{
		"buffer":1,
		"byteOffset":0,
		"byteLength":1536,
		"target":34963
	},
	{
		"buffer":1,
		"byteOffset":1536,
		"byteLength":4880,
		"target":34962,
		"byteStride":20
	},
	{
		"buffer":2,
		"byteOffset":0,
		"byteLength":1536,
		"target":34963
	},
	{
		"buffer":2,
		"byteOffset":1536,
		"byteLength":4880,
		"target":34962,
		"byteStride":20
	},
	{
		"buffer":3,
		"byteOffset":0,
		"byteLength":1536,
		"target":34963
	},
	{
		"buffer":3,
		"byteOffset":1536,
		"byteLength":4880,
		"target":34962,
		"byteStride":20
	},
	{
		"buffer":4,
		"byteOffset":0,
		"byteLength":5376,
		"target":34963
	},
	{
		"buffer":4,
		"byteOffset":5376,
		"byteLength":17080,
		"target":34962,
		"byteStride":20
	},
	{
		"buffer":5,
		"byteOffset":0,
		"byteLength":168,
		"target":34963
	},
	{
		"buffer":5,
		"byteOffset":168,
		"byteLength":600,
		"target":34962,
		"byteStride":20
	},
	{
		"buffer":6,
		"byteOffset":0,
		"byteLength":72,
		"target":34963
	},
	{
		"buffer":6,
		"byteOffset":72,
		"byteLength":280,
		"target":34962,
		"byteStride":20
	},
	{
		"buffer":7,
		"byteOffset":0,
		"byteLength":72,
		"target":34963
	},
	{
		"buffer":7,
		"byteOffset":72,
		"byteLength":280,
		"target":34962,
		"byteStride":20
	},
	{
		"buffer":8,
		"byteOffset":0,
		"byteLength":48,
		"target":34963
	},
	{
		"buffer":8,
		"byteOffset":48,
		"byteLength":200,
		"target":34962,
		"byteStride":20
	},
	{
		"buffer":9,
		"byteOffset":0,
		"byteLength":12,
		"target":34963
	},
	{
		"buffer":9,
		"byteOffset":12,
		"byteLength":80,
		"target":34962,
		"byteStride":20
	},
	{
		"buffer":10,
		"byteOffset":0,
		"byteLength":12,
		"target":34963
	},
	{
		"buffer":10,
		"byteOffset":12,
		"byteLength":80,
		"target":34962,
		"byteStride":20
	},
	{
		"buffer":11,
		"byteOffset":0,
		"byteLength":48,
		"target":34963
	},
	{
		"buffer":11,
		"byteOffset":48,
		"byteLength":200,
		"target":34962,
		"byteStride":20
	},
	{
		"buffer":12,
		"byteOffset":0,
		"byteLength":12,
		"target":34963
	},
	{
		"buffer":12,
		"byteOffset":12,
		"byteLength":80,
		"target":34962,
		"byteStride":20
	},
	{
		"buffer":13,
		"byteOffset":0,
		"byteLength":12,
		"target":34963
	},
	{
		"buffer":13,
		"byteOffset":12,
		"byteLength":80,
		"target":34962,
		"byteStride":20
	},
	{
		"buffer":14,
		"byteOffset":0,
		"byteLength":48,
		"target":34963
	},
	{
		"buffer":14,
		"byteOffset":48,
		"byteLength":200,
		"target":34962,
		"byteStride":20
	},
	{
		"buffer":15,
		"byteOffset":0,
		"byteLength":12,
		"target":34963
	},
	{
		"buffer":15,
		"byteOffset":12,
		"byteLength":80,
		"target":34962,
		"byteStride":20
	},
	{
		"buffer":16,
		"byteOffset":0,
		"byteLength":12,
		"target":34963
	},
	{
		"buffer":16,
		"byteOffset":12,
		"byteLength":80,
		"target":34962,
		"byteStride":20
	},
	{
		"buffer":17,
		"byteOffset":0,
		"byteLength":168,
		"target":34963
	},
	{
		"buffer":17,
		"byteOffset":168,
		"byteLength":600,
		"target":34962,
		"byteStride":20
	},
	{
		"buffer":18,
		"byteOffset":0,
		"byteLength":72,
		"target":34963
	},
	{
		"buffer":18,
		"byteOffset":72,
		"byteLength":280,
		"target":34962,
		"byteStride":20
	},
	{
		"buffer":19,
		"byteOffset":0,
		"byteLength":72,
		"target":34963
	},
	{
		"buffer":19,
		"byteOffset":72,
		"byteLength":280,
		"target":34962,
		"byteStride":20
	}],
	"buffers":[{
		"uri":"data:application/octet-stream;base64,",
		"byteLength":22456
	},
	{
		"uri":"data:application/octet-stream;base64,",
		"byteLength":6416
	},
	{
		"uri":"data:application/octet-stream;base64,",
		"byteLength":6416
	},
	{
		"uri":"data:application/octet-stream;base64,",
		"byteLength":6416
	},
	{
		"uri":"data:application/octet-stream;base64,",
		"byteLength":22456
	},
	{
		"uri":"data:application/octet-stream;base64,",
		"byteLength":768
	},
	{
		"uri":"data:application/octet-stream;base64,",
		"byteLength":352
	},
	{
		"uri":"data:application/octet-stream;base64,",
		"byteLength":352
	},
	{
		"uri":"data:application/octet-stream;base64,",
		"byteLength":248
	},
	{
		"uri":"data:application/octet-stream;base64,",
		"byteLength":92
	},
	{
		"uri":"data:application/octet-stream;base64,",
		"byteLength":92
	},
	{
		"uri":"data:application/octet-stream;base64,",
		"byteLength":248
	},
	{
		"uri":"data:application/octet-stream;base64,",
		"byteLength":92
	},
	{
		"uri":"data:application/octet-stream;base64,",
		"byteLength":92
	},
	{
		"uri":"data:application/octet-stream;base64,",
		"byteLength":248
	},
	{
		"uri":"data:application/octet-stream;base64,",
		"byteLength":92
	},
	{
		"uri":"data:application/octet-stream;base64,",
		"byteLength":92
	},
	{
		"uri":"data:application/octet-stream;base64,",
		"byteLength":768
	},
	{
		"uri":"data:application/octet-stream;base64,",
		"byteLength":352
	},
	{
		"uri":"data:application/octet-stream;base64,",
		"byteLength":352
	}],
	"materials":[{
		"pbrMetallicRoughness":{
			"baseColorFactor":[1.0,
			1.0,
			1.0,
			1.0],
			"metallicFactor":1.0,
			"roughnessFactor":1.0
		},
		"emissiveFactor":[1.0,
		0.0,
		0.0],
		"alphaMode":"OPAQUE",
		"doubleSided":false,
		"name":"A"
	},
	{
		"pbrMetallicRoughness":{
			"baseColorFactor":[1.0,
			1.0,
			1.0,
			1.0],
			"metallicFactor":1.0,
			"roughnessFactor":1.0
		},
		"emissiveFactor":[0.0,
		0.8666666666666663,
		1.0],
		"alphaMode":"OPAQUE",
		"doubleSided":false,
		"name":"-"
	},
	{
		"pbrMetallicRoughness":{
			"baseColorFactor":[1.0,
			1.0,
			1.0,
			1.0],
			"metallicFactor":1.0,
			"roughnessFactor":1.0
		},
		"emissiveFactor":[0.9819500000000001,
		1.0,
		0.0],
		"alphaMode":"OPAQUE",
		"doubleSided":false,
		"name":"V"
	},
	{
		"pbrMetallicRoughness":{
			"baseColorFactor":[1.0,
			1.0,
			1.0,
			1.0],
			"metallicFactor":1.0,
			"roughnessFactor":1.0
		},
		"emissiveFactor":[0.0,
		0.0,
		0.0],
		"alphaMode":"OPAQUE",
		"doubleSided":false,
		"name":"Mat.1"
	}]
}