{
  "accessors": [
    {
      "bufferView": 2,
      "componentType": 5126,
      "count": 268,
      "max": [
        10.197126388549805,
        18.395429611206055,
        42.05579376220703
      ],
      "min": [
        -4.615056991577148,
        -18.48682975769043,
        -42.0557975769043
      ],
      "type": "VEC3"
    },
    {
      "bufferView": 2,
      "byteOffset": 3216,
      "componentType": 5126,
      "count": 268,
      "max": [
        0.998754620552063,
        0.999230682849884,
        0.9755384922027588
      ],
      "min": [
        -0.9987542033195496,
        -0.9993082880973816,
        -0.975538432598114
      ],
      "type": "VEC3"
    },
    {
      "bufferView": 3,
      "componentType": 5126,
      "count": 268,
      "max": [
        0.33367860317230225,
        0.0367588996887207,
        0.21801447868347168,
        1.0
      ],
      "min": [
        -0.9993082880973816,
        -0.043637387454509735,
        -0.999777615070343,
        1.0
      ],
      "type": "VEC4"
    },
    {
      "bufferView": 1,
      "componentType": 5126,
      "count": 268,
      "max": [
        0.6737846732139587,
        0.9695111513137817
      ],
      "min": [
        0.016870766878128052,
        0.02152283862233162
      ],
      "type": "VEC2"
    },
    {
      "bufferView": 0,
      "componentType": 5125,
      "count": 780,
      "type": "SCALAR"
    },
    {
      "bufferView": 2,
      "byteOffset": 6432,
      "componentType": 5126,
      "count": 2156,
      "max": [
        99.23751068115234,
        42.06937026977539,
        78.83316040039063
      ],
      "min": [
        -99.82499694824219,
        -11.551901817321777,
        -78.83319854736328
      ],
      "type": "VEC3"
    },
    {
      "bufferView": 2,
      "byteOffset": 32304,
      "componentType": 5126,
      "count": 2156,
      "max": [
        0.9980067610740662,
        0.999754011631012,
        0.9994893074035645
      ],
      "min": [
        -0.9978542327880859,
        -0.9994754195213318,
        -0.9994891881942749
      ],
      "type": "VEC3"
    },
    {
      "bufferView": 3,
      "byteOffset": 4288,
      "componentType": 5126,
      "count": 2156,
      "max": [
        0.9984604716300964,
        0.9999116063117981,
        0.9927707314491272,
        1.0
      ],
      "min": [
        -0.9998478889465332,
        -0.9998860359191895,
        -0.9927709698677063,
        1.0
      ],
      "type": "VEC4"
    },
    {
      "bufferView": 1,
      "byteOffset": 2144,
      "componentType": 5126,
      "count": 2156,
      "max": [
        0.9694832563400269,
        0.9696474075317383
      ],
      "min": [
        0.5121631622314453,
        0.5054937601089478
      ],
      "type": "VEC2"
    },
    {
      "bufferView": 0,
      "byteOffset": 3120,
      "componentType": 5125,
      "count": 9000,
      "type": "SCALAR"
    },
    {
      "bufferView": 2,
      "byteOffset": 58176,
      "componentType": 5126,
      "count": 596,
      "max": [
        4.795548915863037,
        4.795548915863037,
        4.795549392700195
      ],
      "min": [
        -4.795546531677246,
        -4.795552730560303,
        -4.79554557800293
      ],
      "type": "VEC3"
    },
    {
      "bufferView": 2,
      "byteOffset": 65328,
      "componentType": 5126,
      "count": 596,
      "max": [
        1.0,
        1.0,
        1.0
      ],
      "min": [
        -1.0,
        -1.0,
        -1.0
      ],
      "type": "VEC3"
    },
    {
      "bufferView": 3,
      "byteOffset": 38784,
      "componentType": 5126,
      "count": 596,
      "max": [
        1.0,
        0.20021368563175201,
        1.0,
        1.0
      ],
      "min": [
        -1.0,
        -0.20062583684921265,
        -1.0,
        1.0
      ],
      "type": "VEC4"
    },
    {
      "bufferView": 1,
      "byteOffset": 19392,
      "componentType": 5126,
      "count": 596,
      "max": [
        0.990962028503418,
        0.4978939890861511
      ],
      "min": [
        0.01492057740688324,
        0.062008000910282135
      ],
      "type": "VEC2"
    },
    {
      "bufferView": 0,
      "byteOffset": 39120,
      "componentType": 5125,
      "count": 2880,
      "type": "SCALAR"
    },
    {
      "bufferView": 2,
      "byteOffset": 72480,
      "componentType": 5126,
      "count": 728,
      "max": [
        4.9106574058532715,
        30.29775619506836,
        6.293883800506592
      ],
      "min": [
        -5.832284927368164,
        0.17641112208366394,
        -4.723721504211426
      ],
      "type": "VEC3"
    },
    {
      "bufferView": 2,
      "byteOffset": 81216,
      "componentType": 5126,
      "count": 728,
      "max": [
        0.9889253973960876,
        0.970817506313324,
        0.9998122453689575
      ],
      "min": [
        -0.9989350438117981,
        -0.9352491497993469,
        -0.9999930262565613
      ],
      "type": "VEC3"
    },
    {
      "bufferView": 3,
      "byteOffset": 48320,
      "componentType": 5126,
      "count": 728,
      "max": [
        0.985139787197113,
        0.43367183208465576,
        0.9999187588691711,
        1.0
      ],
      "min": [
        -0.9719458222389221,
        -0.37477341294288635,
        -0.9997208118438721,
        1.0
      ],
      "type": "VEC4"
    },
    {
      "bufferView": 1,
      "byteOffset": 24160,
      "componentType": 5126,
      "count": 728,
      "max": [
        0.9836952686309814,
        0.3235745429992676
      ],
      "min": [
        0.4755682647228241,
        0.014301404356956482
      ],
      "type": "VEC2"
    },
    {
      "bufferView": 0,
      "byteOffset": 50640,
      "componentType": 5125,
      "count": 3828,
      "type": "SCALAR"
    },
    {
      "bufferView": 2,
      "byteOffset": 89952,
      "componentType": 5126,
      "count": 741,
      "max": [
        6.902482986450195,
        29.86150360107422,
        2.611389398574829
      ],
      "min": [
        -3.840459108352661,
        -0.44161924719810486,
        -8.39620304107666
      ],
      "type": "VEC3"
    },
    {
      "bufferView": 2,
      "byteOffset": 98844,
      "componentType": 5126,
      "count": 741,
      "max": [
        0.9889255166053772,
        0.9708335995674133,
        0.9998122453689575
      ],
      "min": [
        -0.9989349842071533,
        -0.9352481961250305,
        -0.9998210072517395
      ],
      "type": "VEC3"
    },
    {
      "bufferView": 3,
      "byteOffset": 59968,
      "componentType": 5126,
      "count": 741,
      "max": [
        0.9718480110168457,
        0.38915950059890747,
        0.9999777674674988,
        1.0
      ],
      "min": [
        -0.9719792604446411,
        -0.35275575518608093,
        -0.9997188448905945,
        1.0
      ],
      "type": "VEC4"
    },
    {
      "bufferView": 1,
      "byteOffset": 29984,
      "componentType": 5126,
      "count": 741,
      "max": [
        0.7288572788238525,
        0.9705561399459839
      ],
      "min": [
        0.03519642353057861,
        0.011586561799049377
      ],
      "type": "VEC2"
    },
    {
      "bufferView": 0,
      "byteOffset": 65952,
      "componentType": 5125,
      "count": 3828,
      "type": "SCALAR"
    }
  ],
  "asset": {
    "extras": {
      "author": "vlad_design228 (https://sketchfab.com/vlad_design228)",
      "license": "CC-BY-4.0 (http://creativecommons.org/licenses/by/4.0/)",
      "source": "https://sketchfab.com/3d-models/ninja-headband-naruto-7db097de3ba7434fac5f742510eb6c18",
      "title": "Ninja headband Naruto"
    },
    "generator": "Sketchfab-12.12.0",
    "version": "2.0"
  },
  "bufferViews": [
    {
      "buffer": 0,
      "byteLength": 81264,
      "name": "floatBufferViews",
      "target": 34963
    },
    {
      "buffer": 0,
      "byteLength": 35912,
      "byteOffset": 81264,
      "byteStride": 8,
      "name": "floatBufferViews",
      "target": 34962
    },
    {
      "buffer": 0,
      "byteLength": 107736,
      "byteOffset": 117176,
      "byteStride": 12,
      "name": "floatBufferViews",
      "target": 34962
    },
    {
      "buffer": 0,
      "byteLength": 71824,
      "byteOffset": 224912,
      "byteStride": 16,
      "name": "floatBufferViews",
      "target": 34962
    }
  ],
  "buffers": [
    {
      "byteLength": 296736,
      "uri": "scene.bin"
    }
  ],
  "images": [
    {
      "uri": "textures/Scene_-_Root_baseColor.jpeg"
    },
    {
      "uri": "textures/Scene_-_Root_metallicRoughness.png"
    },
    {
      "uri": "textures/Scene_-_Root_normal.png"
    }
  ],
  "materials": [
    {
      "doubleSided": true,
      "name": "Scene_-_Root",
      "normalTexture": {
        "index": 2
      },
      "pbrMetallicRoughness": {
        "baseColorTexture": {
          "index": 0
        },
        "metallicRoughnessTexture": {
          "index": 1
        }
      }
    }
  ],
  "meshes": [
    {
      "name": "iron_low__0",
      "primitives": [
        {
          "attributes": {
            "NORMAL": 1,
            "POSITION": 0,
            "TANGENT": 2,
            "TEXCOORD_0": 3
          },
          "indices": 4,
          "material": 0,
          "mode": 4
        }
      ]
    },
    {
      "name": "pocyazka_low__0",
      "primitives": [
        {
          "attributes": {
            "NORMAL": 6,
            "POSITION": 5,
            "TANGENT": 7,
            "TEXCOORD_0": 8
          },
          "indices": 9,
          "material": 0,
          "mode": 4
        }
      ]
    },
    {
      "name": "krug_low__0",
      "primitives": [
        {
          "attributes": {
            "NORMAL": 11,
            "POSITION": 10,
            "TANGENT": 12,
            "TEXCOORD_0": 13
          },
          "indices": 14,
          "material": 0,
          "mode": 4
        }
      ]
    },
    {
      "name": "shnur1_low__0",
      "primitives": [
        {
          "attributes": {
            "NORMAL": 16,
            "POSITION": 15,
            "TANGENT": 17,
            "TEXCOORD_0": 18
          },
          "indices": 19,
          "material": 0,
          "mode": 4
        }
      ]
    },
    {
      "name": "shnur2_low__0",
      "primitives": [
        {
          "attributes": {
            "NORMAL": 21,
            "POSITION": 20,
            "TANGENT": 22,
            "TEXCOORD_0": 23
          },
          "indices": 24,
          "material": 0,
          "mode": 4
        }
      ]
    }
  ],
  "nodes": [
    {
      "children": [
        1
      ],
      "matrix": [
        1.0,
        0.0,
        0.0,
        0.0,
        0.0,
        2.220446049250313e-16,
        -1.0,
        0.0,
        0.0,
        1.0,
        2.220446049250313e-16,
        0.0,
        0.0,
        0.0,
        0.0,
        1.0
      ],
      "name": "Sketchfab_model"
    },
    {
      "children": [
        2
      ],
      "matrix": [
        0.009999999776482582,
        0.0,
        0.0,
        0.0,
        0.0,
        0.0,
        0.009999999776482582,
        0.0,
        0.0,
        -0.009999999776482582,
        0.0,
        0.0,
        0.0,
        0.0,
        0.0,
        1.0
      ],
      "name": "a07e94080e9548d594d3f9a36cb17658.fbx"
    },
    {
      "children": [
        3,
        5,
        7,
        9,
        11
      ],
      "name": "RootNode"
    },
    {
      "children": [
        4
      ],
      "matrix": [
        1.0,
        0.0,
        0.0,
        0.0,
        0.0,
        1.0,
        0.0,
        0.0,
        0.0,
        0.0,
        1.0,
        0.0,
        92.14413452148438,
        15.694687843322754,
        1.0608207958284765e-05,
        1.0
      ],
      "name": "iron_low"
    },
    {
      "mesh": 0,
      "name": "iron_low__0"
    },
    {
      "children": [
        6
      ],
      "name": "pocyazka_low"
    },
    {
      "mesh": 1,
      "name": "pocyazka_low__0"
    },
    {
      "children": [
        8
      ],
      "matrix": [
        1.0,
        0.0,
        0.0,
        0.0,
        0.0,
        1.0,
        0.0,
        0.0,
        0.0,
        0.0,
        1.0,
        0.0,
        -101.94432830810547,
        8.352089881896973,
        0.24785026907920837,
        1.0
      ],
      "name": "krug_low"
    },
    {
      "mesh": 2,
      "name": "krug_low__0"
    },
    {
      "children": [
        10
      ],
      "matrix": [
        1.1242182865578905,
        -0.7055192846712733,
        2.0428112856766612e-08,
        0.0,
        -0.33712946524089943,
        -0.5372030136926014,
        1.165924895788831,
        0.0,
        -0.6197589174127542,
        -0.9875624044684034,
        -0.6342265226228667,
        0.0,
        -101.9443130493164,
        8.352088928222656,
        0.24784989655017853,
        1.0
      ],
      "name": "shnur1_low"
    },
    {
      "mesh": 3,
      "name": "shnur1_low__0"
    },
    {
      "children": [
        12
      ],
      "matrix": [
        1.2435044111386615,
        0.24848962707883804,
        -0.39188506170449405,
        0.0,
        -0.4640269349429997,
        0.6659065638312454,
        -1.0501769702141126,
        0.0,
        5.659479356374338e-07,
        1.1209128290616126,
        0.7107592043153548,
        0.0,
        -101.79022216796875,
        12.898627281188965,
        1.6757957935333252,
        1.0
      ],
      "name": "shnur2_low"
    },
    {
      "mesh": 4,
      "name": "shnur2_low__0"
    }
  ],
  "samplers": [
    {
      "magFilter": 9729,
      "minFilter": 9987,
      "wrapS": 10497,
      "wrapT": 10497
    }
  ],
  "scene": 0,
  "scenes": [
    {
      "name": "Sketchfab_Scene",
      "nodes": [
        0
      ]
    }
  ],
  "textures": [
    {
      "sampler": 0,
      "source": 0
    },
    {
      "sampler": 0,
      "source": 1
    },
    {
      "sampler": 0,
      "source": 2
    }
  ]
}
